<svg width="46" height="46" viewBox="0 0 46 46" fill="none" xmlns="http://www.w3.org/2000/svg">
<path d="M37.1742 10C40.8574 10 43.8603 12.969 43.9955 16.6828L44 16.9429V29.0571C44 32.8042 41.0812 35.8572 37.4286 35.9942L37.1731 36H28.1349L30.3155 32.8607L36.9051 30.8069C37.4532 30.6298 37.9359 30.2892 38.2899 29.8295C38.6439 29.3698 38.8528 28.8125 38.8892 28.2305L38.896 28.0256V17.9744C38.8999 17.3928 38.7312 16.8234 38.4118 16.3401C38.0924 15.8569 37.6371 15.4821 37.105 15.2645L36.9051 15.1919L30.3167 13.1382L28.1338 10H37.172H37.1742ZM18.8651 10L16.6845 13.1382L10.0949 15.1919C9.51366 15.3798 9.0069 15.7512 8.6487 16.2518C8.29049 16.7524 8.09963 17.356 8.10399 17.9744V28.0256C8.09969 28.6438 8.2906 29.2473 8.64881 29.7477C9.00702 30.2481 9.51375 30.6193 10.0949 30.8069L16.6833 32.8607L18.8651 36H9.8269C6.05626 36 3 32.8917 3 29.0571V16.9429C3 13.1094 6.05512 10 9.82576 10H18.8651ZM30.3314 21.3647V24.496H16.6708V21.3647H30.3303H30.3314Z" fill="#FF6A00"/>
</svg>