<?xml version="1.0" standalone="no"?><!DOCTYPE svg PUBLIC "-//W3C//DTD SVG 1.1//EN" "http://www.w3.org/Graphics/SVG/1.1/DTD/svg11.dtd"><svg t="1738590002857" class="icon" viewBox="0 0 1027 1024" version="1.1" xmlns="http://www.w3.org/2000/svg" p-id="1996" xmlns:xlink="http://www.w3.org/1999/xlink" width="24.0703125" height="24"><path d="M146.659826 724.481043a221.805005 221.805005 0 0 1 42.367632-52.813977 26.57824 26.57824 0 1 1 25.276729 46.032416 212.591671 212.591671 0 0 1-67.678612 6.850062m364.594545 211.735413a220.400742 220.400742 0 0 1-23.050458-63.637075 26.57824 26.57824 0 1 1 52.471474 2.363271 212.351919 212.351919 0 0 1-29.386765 61.239554z m370.245847-212.797173a221.154249 221.154249 0 0 1-66.959355-10.069591 26.57824 26.57824 0 1 1 27.091994-45.039157 212.591671 212.591671 0 0 1 39.901611 55.074498z m-0.616506-423.71058a220.366492 220.366492 0 0 1-42.367633 52.813978 26.57824 26.57824 0 1 1-25.276728-46.032416 212.865674 212.865674 0 0 1 67.644361-6.781562zM61.479306 513.704638a93.469095 93.469095 0 0 1-49.560198-52.334473 143.371796 143.371796 0 0 1-11.06285-37.230087 119.49933 119.49933 0 0 1 43.292391-101.415166 165.154993 165.154993 0 0 1 83.913258-33.565304 165.052242 165.052242 0 0 1-8.665328-89.975563 119.567831 119.567831 0 0 1 70.144634-84.940767 109.052986 109.052986 0 0 1 100.216406 9.555836 94.119851 94.119851 0 0 1 21.543445-77.268698 143.234795 143.234795 0 0 1 27.400247-27.400248 119.567831 119.567831 0 0 1 109.600991-10.275093 165.360495 165.360495 0 0 1 69.493878 57.780272A165.257744 165.257744 0 0 1 592.770108 16.150391a119.602081 119.602081 0 0 1 108.093976 21.200942 111.210755 111.210755 0 0 1 39.79886 81.207484 93.777348 93.777348 0 0 1 68.808872-15.515391 143.8513 143.8513 0 0 1 37.675341 9.179083 119.567831 119.567831 0 0 1 65.794844 88.365799 165.257744 165.257744 0 0 1-13.186369 89.393308 165.223493 165.223493 0 0 1 82.200743 37.67534 119.53358 119.53358 0 0 1 38.120595 103.367435 109.806492 109.806492 0 0 1-54.14974 79.460718 93.571846 93.571846 0 0 1 49.594448 52.368723 143.234795 143.234795 0 0 1 11.06285 37.230087 119.602081 119.602081 0 0 1-43.292391 101.346666 165.291994 165.291994 0 0 1-83.913258 33.531053 165.291994 165.291994 0 0 1 8.665328 89.975563 119.602081 119.602081 0 0 1-70.178884 84.940768 108.984485 108.984485 0 0 1-100.182156-9.590087 94.154101 94.154101 0 0 1-21.509194 77.302949 143.8513 143.8513 0 0 1-27.400248 27.400247 119.602081 119.602081 0 0 1-109.60099 10.275093 164.88099 164.88099 0 0 1-69.493878-57.746022 165.428995 165.428995 0 0 1-75.076679 50.553457 119.53358 119.53358 0 0 1-108.128227-21.200942 111.210755 111.210755 0 0 1-39.79886-81.207484 93.708847 93.708847 0 0 1-68.808872 15.549641 144.296554 144.296554 0 0 1-37.67534-9.179083 119.636331 119.636331 0 0 1-65.794845-88.400049 165.052242 165.052242 0 0 1 13.186369-89.393308 165.291994 165.291994 0 0 1-82.200743-37.67534 119.53358 119.53358 0 0 1-38.154845-103.367435 109.909243 109.909243 0 0 1 54.252491-79.597719z m372.472116-148.646344c-70.624138-4.829294-100.73016 50.93021-129.671672 101.278166-10.754597-3.151028-8.665328-0.308253-16.097645-4.589542-20.961189-12.056109 13.494622-81.618488 18.186914-150.701362 3.938786-58.225526-48.772441-159.435191-120.115836-146.454323a70.178884 70.178884 0 0 0-51.375464 69.425377 119.293828 119.293828 0 0 0 8.80233 53.704485c35.586072-3.938786 121.246096 2.842776 124.739627 51.95772a53.944238 53.944238 0 0 1-31.715787 51.375464c-45.004907 18.734919-91.79083-53.498984-103.983939-87.132787a114.841288 114.841288 0 0 0-50.690459 16.748401 70.144634 70.144634 0 0 0-38.154844 77.4742c25.242478 82.577496 124.397124 46.340669 174.88208 54.320991a193.617 193.617 0 0 1 78.227707 33.359802 226.052043 226.052043 0 0 0 24.386221-12.12461c36.339578-20.892689 54.800495-8.83658 25.584981 34.25031-21.235192 31.339033-15.892144 96.585873 22.296951 163.031473-8.151574 7.70632-4.623792 7.363817-12.056109 11.610855-20.99544 12.056109-63.774076-52.745477-121.211845-91.551077-48.395687-32.709046-162.346467-38.017844-187.00669 30.140272a70.178884 70.178884 0 0 0 34.250309 79.289467 119.876083 119.876083 0 0 0 50.86171 19.419925c14.487881-32.743296 63.465824-103.367434 107.648723-81.686988a53.944238 53.944238 0 0 1 28.564758 53.327732c-6.439058 48.292936-92.475836 52.437224-127.582403 46.066666a115.11529 115.11529 0 0 0-11.0286 52.231723 70.144634 70.144634 0 0 0 47.950434 71.92565c84.05026 19.693928 102.750929-84.221511 134.911969-123.814869a196.870779 196.870779 0 0 1 70.898141-52.197472 222.627012 222.627012 0 0 0 2.637274-29.215514c0.924758-36.682082 16.303147-48.532689 34.627063-19.180174 46.306419 74.186171 76.686443 78.775712 158.818685 80.933482 2.363271 10.960099 3.870285 7.77482 3.664783 16.371648-0.616506 24.180719-78.227707 27.023494-141.248277 55.862255-53.08798 24.31772-116.930557 118.882824-71.514646 175.395835a70.178884 70.178884 0 0 0 85.625774 12.056109 119.191077 119.191077 0 0 0 43.052639-33.359802c-20.550186-29.386766-55.28-107.956976-13.700124-134.398214a53.944238 53.944238 0 0 1 60.383296 3.425031c37.915093 30.619777-3.425031 106.17596-27.057744 132.959701a115.252292 115.252292 0 0 0 38.874101 36.613581 70.213135 70.213135 0 0 0 86.31078-3.425031c60.554547-61.650557-18.529417-131.452688-35.551821-179.642873a193.342997 193.342997 0 0 1-7.980323-84.632515 221.3255 221.3255 0 0 0-25.173977-16.816902c-36.339578-20.926939-35.209318-42.984138 16.782652-39.387856 71.651648 4.863544 101.415167-52.060471 129.705922-101.278166 10.720347 3.151028 8.665328 0.274002 16.097645 4.589542 20.99544 12.056109-13.494622 81.652738-18.152664 150.701362-3.938786 58.225526 48.772441 159.469441 120.115836 146.454324a70.110384 70.110384 0 0 0 51.375464-69.425378 119.225328 119.225328 0 0 0-8.802329-53.704485c-35.586072 3.904535-121.246096-2.877026-124.739628-51.95772a53.944238 53.944238 0 0 1 31.715787-51.375464c45.004907-18.734919 91.79083 53.498984 103.98394 87.132787a115.423543 115.423543 0 0 0 50.690458-16.714151 70.144634 70.144634 0 0 0 38.154845-77.4742c-25.242478-82.543246-124.397124-46.340669-174.84783-54.320991a193.411498 193.411498 0 0 1-78.227708-33.325551 219.201981 219.201981 0 0 0-24.38622 12.12461c-36.339578 20.892689-54.800495 8.83658-25.584981-34.25031a128.027657 128.027657 0 0 0 5.54855-121.040594 456.796379 456.796379 0 0 1-27.845502-41.99088c8.151574-7.70632 4.623792-7.329566 12.056109-11.610854 20.961189-12.056109 63.739826 52.711226 121.177596 91.551077 48.395687 32.709046 162.346467 38.017844 187.00669-30.174523a70.144634 70.144634 0 0 0-34.25031-79.289466 119.430829 119.430829 0 0 0-51.238463-19.591177c-14.522131 32.743296-63.465824 103.367434-107.648723 81.686988a54.012738 54.012738 0 0 1-28.564758-53.327732c6.473309-48.292936 92.475836-52.437224 127.616653-46.066666a115.218041 115.218041 0 0 0 11.0286-52.231723 70.144634 70.144634 0 0 0-47.950433-71.92565c-84.05026-19.693928-102.750929 84.221511-134.91197 123.814869a196.90503 196.90503 0 0 1-70.89814 52.197472 218.277223 218.277223 0 0 0-2.637274 29.215514c-1.06176 41.888129-20.99544 51.375464-42.641636 4.007286-29.660768-65.075588-91.927831-64.287831-150.701362-65.760594-2.329021-10.960099-3.870285-7.77482-3.664783-16.337398 0.616506-24.180719 78.193457-27.023494 141.248277-55.896505 53.12223-24.31772 116.930557-118.848574 71.548896-175.395835a70.144634 70.144634 0 0 0-85.625774-12.056109 119.259578 119.259578 0 0 0-43.052639 33.325551c20.550186 29.421016 55.245749 107.956976 13.700124 134.432465a53.978488 53.978488 0 0 1-60.383296-3.425031c-37.915093-30.654027 3.425031-106.17596 27.057745-132.959701a115.389293 115.389293 0 0 0-38.874101-36.579331 70.144634 70.144634 0 0 0-86.27653 3.425031c-60.554547 61.650557 18.529417 131.452688 35.551821 179.642874a193.479999 193.479999 0 0 1 7.980322 84.632515 220.708995 220.708995 0 0 0 25.173978 16.851152c36.47658 20.892689 35.346319 42.915638-16.679901 39.250855zM146.00907 300.873214a221.154249 221.154249 0 0 1 66.959355 10.069591 26.57824 26.57824 0 1 1-27.091995 45.004907 213.58493 213.58493 0 0 1-39.86736-55.142998z m370.245846-212.831423a221.531002 221.531002 0 0 1 23.050458 63.637075 26.57824 26.57824 0 1 1-52.471474-2.363271 212.351919 212.351919 0 0 1 29.455266-61.342305z" fill="#f3552d" p-id="1997"></path></svg>